<?xml version="1.0" encoding="UTF-8" standalone="no"?>
<!DOCTYPE svg PUBLIC "-//W3C//DTD SVG 1.1//EN" "http://www.w3.org/Graphics/SVG/1.1/DTD/svg11.dtd">
<svg width="100%" height="100%" viewBox="0 0 16 41" version="1.1" xmlns="http://www.w3.org/2000/svg" xmlns:xlink="http://www.w3.org/1999/xlink" xml:space="preserve" xmlns:serif="http://www.serif.com/" style="fill-rule:evenodd;clip-rule:evenodd;stroke-linejoin:round;stroke-miterlimit:2;">
    <path d="M9.64,30.43C9.991,32.942 10.772,35.78 9.838,37.964C9.137,39.562 7.05,40.968 5.505,40.156C4.906,39.84 5.392,40.105 5.027,39.904C6.097,39.647 7.027,38.868 7.287,38.339C8.125,36.875 6.888,34.7 5.132,34.981C2.87,35.027 1.942,38.121 3.396,39.666C4.743,41.186 7.229,40.978 8.827,39.984C10.639,38.804 10.866,36.44 10.659,34.422C10.589,33.744 7.775,15.085 7.304,11.846C7.202,11.367 7.029,10.094 7.048,9.715C7.178,7.021 9.368,3.127 11.286,1.691C11.595,2.268 11.849,2.314 12.049,3.53C12.354,6.656 10.065,9.222 7.972,11.231C7.449,11.732 7.836,11.36 7.348,11.806L6.776,12.34C5.858,13.227 5.005,14.016 4.056,14.947C1.7,17.255 -0.353,20.377 0.051,23.825C0.234,27.159 2.64,30.259 5.921,31.052C7.167,31.367 8.531,31.417 9.745,31.151C10.317,31.025 10.753,30.945 11.495,30.586C13.979,29.384 15.765,26.327 15.002,23.464C14.684,21.995 13.958,20.55 12.7,19.672C11.468,18.766 9.842,18.534 8.359,18.793L7.842,18.879C4.851,19.661 2.797,23.654 4.661,26.33C5.349,27.316 6.858,28.389 7.427,27.964C6.325,27.281 5.433,26.202 5.617,24.737C5.853,22.863 7.054,21.81 8.265,21.538C8.265,21.538 8.134,21.559 8.753,21.453C10.378,21.285 12.261,21.976 12.826,23.617C13.07,24.194 13.169,24.814 13.261,25.429C13.475,27.42 12.427,29.79 10.215,30.389C9.376,30.616 8.688,30.655 8.173,30.655C5.629,30.796 3.113,29.03 2.478,26.544C1.729,24.391 1.95,21.914 3.299,20.04C4.414,18.338 5.882,16.958 7.304,15.52L7.81,15.005C10.16,12.676 12.699,9.99 12.833,6.483C12.892,4.251 12.557,1.812 11.155,-0C9.455,0.128 8.171,1.81 7.353,3.416C6.364,5.358 6.221,9.445 6.793,12.325C6.793,12.325 9.261,27.714 9.64,30.43Z" style="fill:none;fill-rule:nonzero;stroke:black;stroke-width:0.08px;"/>
</svg>
