<?xml version="1.0" encoding="UTF-8" standalone="no"?>
<!DOCTYPE svg PUBLIC "-//W3C//DTD SVG 1.1//EN" "http://www.w3.org/Graphics/SVG/1.1/DTD/svg11.dtd">
<svg width="100%" height="100%" viewBox="0 0 794 1123" version="1.1" xmlns="http://www.w3.org/2000/svg" xmlns:xlink="http://www.w3.org/1999/xlink" xml:space="preserve" xmlns:serif="http://www.serif.com/" style="fill-rule:evenodd;clip-rule:evenodd;stroke-linejoin:round;stroke-miterlimit:2;">
    <g id="g8">
        <path id="path170" d="M374.264,482.825C377.269,483.715 383.36,485.19 383.36,485.19C407.233,490.818 427.134,492.651 468.32,493.014C489.045,493.197 489.6,493.233 489.6,494.4C489.6,495.352 488.958,495.618 481.566,497.728C454.783,505.374 431.985,506.996 402.72,503.338C396.268,502.531 383.818,500.373 381.307,499.626C380.62,499.421 380.741,563.909 381.428,564.596C381.619,564.787 388.527,564.226 400.066,563.083C438.597,559.264 453.825,558.031 478.56,556.725C489.644,556.14 557.823,556.188 558.538,556.782C561.251,559.034 554.44,560.188 507.52,565.429C496.52,566.658 477.728,568.823 465.76,570.241C438.12,573.515 411.783,576.51 395.106,578.277C387.926,579.037 381.929,579.736 381.779,579.83C381.429,580.049 382.487,625.284 382.857,625.882C382.936,626.011 389.166,625.497 396.701,624.741C415.97,622.807 457.953,618.817 475.04,617.295C515.061,613.731 530.934,612.741 557.28,612.166C583.154,611.602 600.665,611.129 604.32,610.897C607.973,610.665 609.28,610.951 609.28,611.985C609.28,612.959 608.099,613.44 602.225,614.859C574.261,621.613 550.026,624.545 406.4,638.555C394.52,639.714 384.453,640.738 384.029,640.83L383.259,640.998L383.463,648.579C384.568,689.532 382.91,684.93 396.16,683.829C461.264,678.419 484.166,678.443 532.723,683.973C544.924,685.362 545.92,685.569 545.92,686.72C545.92,688.316 545.829,688.324 505.28,690.251C488.269,691.059 475.561,691.859 456.96,693.294C428.662,695.477 386.152,699.178 385.628,699.504C385.466,699.605 385.534,704.107 385.788,710.08C387.257,744.565 389.021,781.049 391.683,832C394.022,876.772 394.176,879.801 394.875,895.04C397.099,943.486 397.966,1000.93 396.501,1002.7C396.014,1003.28 395.018,1003.36 394.696,1002.84L394.696,1002.84C394.281,1002.17 388.624,960.753 386.242,940.96C380.649,894.464 376.123,826.665 371.575,721.222C371.1,710.19 370.64,701.094 370.555,701.01C370.47,700.925 369.176,700.983 367.68,701.14C366.184,701.296 359.344,702.01 352.48,702.726C345.616,703.441 326.752,705.526 310.56,707.358C252.107,713.973 245.388,713.783 245.725,705.531C245.856,702.298 250.116,700.558 263.144,698.413C274.121,696.607 326.539,690.509 360.582,687.078C371.293,685.999 370.167,686.856 369.886,680C369.76,676.92 369.41,667.344 369.107,658.72C368.805,650.096 368.441,642.912 368.299,642.756C367.99,642.417 363.198,642.925 317.28,648.161C259.913,654.702 242.363,655.934 232.018,654.147C221.125,652.265 223.291,646.153 235.714,643.722C249.416,641.041 253.272,640.481 272.346,638.402C280.516,637.512 300.376,635.28 316.48,633.443C332.584,631.605 350.656,629.572 356.64,628.926C369.738,627.51 368.128,629.419 367.714,615.793C367.523,609.483 367.269,599.231 367.151,593.01C366.976,583.824 366.853,581.668 366.493,581.53C366.25,581.437 364.509,581.526 362.625,581.728C360.741,581.931 348.76,583.239 336,584.636C273.991,591.424 265.79,592.125 248.32,592.132C227.346,592.14 221.917,590.946 222.884,586.542C223.601,583.276 226.72,582.248 240.8,580.636C244.672,580.192 253.445,579.103 260.295,578.215C267.146,577.328 281.474,575.681 292.135,574.556C302.797,573.431 322.68,571.287 336.32,569.792C349.96,568.297 362.24,566.974 363.609,566.852C366.782,566.569 366.558,567.359 366.422,556.96C366.358,552.032 366.219,536.28 366.113,521.955C365.945,499.266 365.858,495.876 365.44,495.65C365.176,495.507 362.368,494.577 359.2,493.584C284.459,470.148 253.292,429.961 271.893,381.009C285.158,346.102 324.608,310.1 362.023,298.757C364.101,298.127 365.96,297.514 366.153,297.395C366.407,297.238 366.444,289.236 366.287,268.669C365.904,218.243 365.401,195.181 363.182,126.24C362.412,102.315 362.353,99.241 362.586,95.219C363.507,79.293 368.913,82.664 372.617,101.475C378.361,130.641 380.016,164.08 381.066,272.16C381.277,293.983 381.287,294.239 381.92,294.179C382.272,294.145 384.792,293.863 387.52,293.551C419.65,289.879 449.949,300.939 455.804,318.476C457.149,322.505 455.357,322.509 449.316,318.49C437.762,310.807 429.941,308.711 409.336,307.776C398.845,307.3 382.485,308.24 381.39,309.381C381.274,309.501 381.13,348.98 381.07,397.112C381.07,397.112 382.231,461.73 380.963,474.906C380.716,477.474 376.358,476.361 373.148,475.392C368.909,474.113 366.105,473.196 365.866,470.546C364.664,457.244 366.149,435.461 366.258,396.354L366.49,312.868L365.574,313.098C338.726,319.836 301.767,351.81 288.311,379.94C271.514,415.054 284.848,443.519 328.277,465.256C339.734,470.991 365.808,480.069 365.808,480.069C365.808,480.069 371.165,481.907 374.264,482.825Z" style="fill-rule:nonzero;"/>
    </g>
</svg>
